<svg xmlns="http://www.w3.org/2000/svg" viewBox="0 0 24 24"><path d="M20 0H4a4 4 0 0 0-4 4v16a4 4 0 0 0 4 4h16a4 4 0 0 0 4-4V4a4 4 0 0 0-4-4zm-1.64 8.74v.43A9.34 9.34 0 0 1 4 17a6.85 6.85 0 0 0 .79 0 6.57 6.57 0 0 0 4.07-1.4 3.29 3.29 0 0 1-3.06-2.21 4.1 4.1 0 0 0 .62 0 3.49 3.49 0 0 0 .86-.11 3.28 3.28 0 0 1-2.63-3.22 3.35 3.35 0 0 0 1.48.42 3.29 3.29 0 0 1-1.46-2.72 3.22 3.22 0 0 1 .45-1.66 9.3 9.3 0 0 0 6.76 3.43 3.67 3.67 0 0 1-.08-.75 3.28 3.28 0 0 1 5.67-2.24 6.54 6.54 0 0 0 2.08-.79 3.22 3.22 0 0 1-1.44 1.8 6.67 6.67 0 0 0 1.89-.5 7.31 7.31 0 0 1-1.64 1.69z" fill-rule="evenodd"/></svg>