<svg xmlns="http://www.w3.org/2000/svg" viewBox="-2 -1.5 16 16"><path d="M9.748 4.127l-3.27 4.205-2.31-2.31 4.205-3.27 1.375 1.375zm2.484-.091l-.554-.554V3.43l-.102-.051L8.463.267A.9.9 0 0 0 7.82 0a.904.904 0 0 0-.644.267.901.901 0 0 0-.267.644c0 .195.061.382.174.536L2.87 4.724l-.06-.06a.912.912 0 0 0-1.288 1.288l1.87 1.869-3.126 3.125a.91.91 0 1 0 1.288 1.287L4.68 9.108l1.87 1.87a.932.932 0 0 0 1.287 0 .913.913 0 0 0 0-1.289l-.06-.06 3.277-4.212a.938.938 0 0 0 1.18-.093.914.914 0 0 0 0-1.288z"/></svg>