<svg xmlns="http://www.w3.org/2000/svg" data-name="Layer 1" viewBox="0 0 30.49 32"><path d="M29.79 18.8C29.43 12.11 26.01 0 15.35 0a11.9 11.9 0 0 0-5.11 1.11l-.12.05C3.59 4.32 1.24 13.19.93 18.64a1.85 1.85 0 1 0 2.31.41c.09-1.31.83-9.79 5.5-14.14A53.73 53.73 0 0 0 7.18 16.5a76.9 76.9 0 0 0 1.43 13.16H6.83a1.17 1.17 0 0 0 0 2.34H10.34a1.13 1.13 0 0 0 .23-.1l.17-.11a1.12 1.12 0 0 0 .37-.57 1.12 1.12 0 0 0 0-.2.33.33 0 0 0 0-.26 1.09 1.09 0 0 0 0-.11c0-.05-.82-3.82-1.3-8.26a39.75 39.75 0 0 1 5.62-.45 33.72 33.72 0 0 1 5.21.43c-.48 4.44-1.29 8.23-1.3 8.28a1.17 1.17 0 0 0 .9 1.39h3.6a1.17 1.17 0 0 0 0-2.34h-1.86a76.9 76.9 0 0 0 1.43-13.2 54 54 0 0 0-1.6-11.72C26.4 8.91 27.29 17 27.44 18.84a1.85 1.85 0 1 0 2.35-.04zm-8.72-2.3c0 1.13-.05 2.3-.14 3.46a35.84 35.84 0 0 0-5.42-.43 41.52 41.52 0 0 0-5.84.46c-.09-1.17-.14-2.35-.14-3.48A57.14 57.14 0 0 1 11.65 3a10.15 10.15 0 0 1 7.28 0 57.16 57.16 0 0 1 2.14 13.5z" fill-rule="evenodd"/></svg>