<svg xmlns="http://www.w3.org/2000/svg" xmlns:xlink="http://www.w3.org/1999/xlink" width="160" zoomAndPan="magnify" viewBox="0 0 120 32.999998" height="44" preserveAspectRatio="xMidYMid meet" version="1.0"><defs><g/><clipPath id="e72bdd9008"><path d="M 58.199219 5.101562 L 62.699219 5.101562 L 62.699219 9.601562 L 58.199219 9.601562 Z M 58.199219 5.101562 " clip-rule="nonzero"/></clipPath><clipPath id="99e2b2228a"><path d="M 82.574219 5.101562 L 87.074219 5.101562 L 87.074219 9.601562 L 82.574219 9.601562 Z M 82.574219 5.101562 " clip-rule="nonzero"/></clipPath></defs><rect x="-12" width="144" fill="#ffffff" y="-3.3" height="39.599998" fill-opacity="1"/><rect x="-12" width="144" fill="#ffffff" y="-3.3" height="39.599998" fill-opacity="1"/><rect x="-12" width="144" fill="#8c52ff" y="-3.3" height="39.599998" fill-opacity="1"/><g fill="#ffffff" fill-opacity="1"><g transform="translate(0.814457, 26.467573)"><g><path d="M 3.515625 0.140625 C 3.148438 0.140625 2.84375 0.0195312 2.59375 -0.21875 C 2.351562 -0.46875 2.234375 -0.769531 2.234375 -1.125 L 2.234375 -13.265625 C 2.234375 -13.628906 2.351562 -13.9375 2.59375 -14.1875 C 2.84375 -14.445312 3.148438 -14.578125 3.515625 -14.578125 C 3.867188 -14.578125 4.171875 -14.445312 4.421875 -14.1875 C 4.679688 -13.9375 4.8125 -13.628906 4.8125 -13.265625 L 4.8125 -12.046875 C 6.132812 -13.828125 7.613281 -14.71875 9.25 -14.71875 L 9.390625 -14.71875 C 9.753906 -14.71875 10.050781 -14.59375 10.28125 -14.34375 C 10.519531 -14.101562 10.640625 -13.800781 10.640625 -13.4375 C 10.640625 -13.082031 10.515625 -12.789062 10.265625 -12.5625 C 10.023438 -12.332031 9.71875 -12.21875 9.34375 -12.21875 L 9.203125 -12.21875 C 8.296875 -12.21875 7.460938 -11.992188 6.703125 -11.546875 C 5.953125 -11.109375 5.320312 -10.503906 4.8125 -9.734375 L 4.8125 -1.125 C 4.8125 -0.769531 4.679688 -0.46875 4.421875 -0.21875 C 4.171875 0.0195312 3.867188 0.140625 3.515625 0.140625 Z M 3.515625 0.140625 "/></g></g></g><g fill="#ffffff" fill-opacity="1"><g transform="translate(11.649172, 26.467573)"><g><path d="M 8.609375 0.28125 C 7.148438 0.28125 5.875 -0.0234375 4.78125 -0.640625 C 3.6875 -1.265625 2.84375 -2.148438 2.25 -3.296875 C 1.65625 -4.441406 1.359375 -5.75 1.359375 -7.21875 C 1.359375 -8.6875 1.65625 -9.988281 2.25 -11.125 C 2.84375 -12.269531 3.6875 -13.15625 4.78125 -13.78125 C 5.875 -14.40625 7.148438 -14.71875 8.609375 -14.71875 C 10.035156 -14.71875 11.296875 -14.40625 12.390625 -13.78125 C 13.484375 -13.15625 14.332031 -12.269531 14.9375 -11.125 C 15.539062 -9.988281 15.84375 -8.6875 15.84375 -7.21875 C 15.84375 -5.75 15.539062 -4.441406 14.9375 -3.296875 C 14.332031 -2.148438 13.484375 -1.265625 12.390625 -0.640625 C 11.296875 -0.0234375 10.035156 0.28125 8.609375 0.28125 Z M 8.609375 -2.0625 C 9.378906 -2.0625 10.117188 -2.238281 10.828125 -2.59375 C 11.535156 -2.957031 12.117188 -3.523438 12.578125 -4.296875 C 13.035156 -5.078125 13.265625 -6.0625 13.265625 -7.25 C 13.265625 -8.414062 13.035156 -9.382812 12.578125 -10.15625 C 12.117188 -10.925781 11.535156 -11.484375 10.828125 -11.828125 C 10.117188 -12.179688 9.378906 -12.359375 8.609375 -12.359375 C 7.804688 -12.359375 7.050781 -12.179688 6.34375 -11.828125 C 5.644531 -11.484375 5.066406 -10.925781 4.609375 -10.15625 C 4.160156 -9.382812 3.9375 -8.414062 3.9375 -7.25 C 3.9375 -6.0625 4.160156 -5.078125 4.609375 -4.296875 C 5.066406 -3.523438 5.644531 -2.957031 6.34375 -2.59375 C 7.050781 -2.238281 7.804688 -2.0625 8.609375 -2.0625 Z M 8.609375 -2.0625 "/></g></g></g><g fill="#ffffff" fill-opacity="1"><g transform="translate(28.848931, 26.467573)"><g><path d="M 7.15625 0.28125 C 6.125 0.28125 5.222656 0.0351562 4.453125 -0.453125 C 3.691406 -0.941406 3.109375 -1.609375 2.703125 -2.453125 C 2.296875 -3.304688 2.09375 -4.242188 2.09375 -5.265625 L 2.09375 -13.296875 C 2.09375 -13.660156 2.21875 -13.960938 2.46875 -14.203125 C 2.726562 -14.453125 3.035156 -14.578125 3.390625 -14.578125 C 3.753906 -14.578125 4.054688 -14.453125 4.296875 -14.203125 C 4.546875 -13.960938 4.671875 -13.660156 4.671875 -13.296875 L 4.671875 -5.546875 C 4.671875 -3.242188 5.707031 -2.09375 7.78125 -2.09375 C 8.726562 -2.09375 9.570312 -2.335938 10.3125 -2.828125 C 11.0625 -3.316406 11.765625 -3.976562 12.421875 -4.8125 L 12.421875 -13.296875 C 12.421875 -13.660156 12.546875 -13.960938 12.796875 -14.203125 C 13.054688 -14.453125 13.363281 -14.578125 13.71875 -14.578125 C 14.082031 -14.578125 14.382812 -14.453125 14.625 -14.203125 C 14.875 -13.960938 15 -13.660156 15 -13.296875 L 15 -1.15625 C 15 -0.800781 14.875 -0.492188 14.625 -0.234375 C 14.382812 0.015625 14.082031 0.140625 13.71875 0.140625 C 13.363281 0.140625 13.054688 0.015625 12.796875 -0.234375 C 12.546875 -0.492188 12.421875 -0.800781 12.421875 -1.15625 L 12.421875 -2.328125 C 11.703125 -1.523438 10.925781 -0.890625 10.09375 -0.421875 C 9.269531 0.046875 8.289062 0.28125 7.15625 0.28125 Z M 7.15625 0.28125 "/></g></g></g><g fill="#ffffff" fill-opacity="1"><g transform="translate(46.07698, 26.467573)"><g><path d="M 7.21875 0.28125 C 4.457031 0.28125 3.078125 -0.960938 3.078125 -3.453125 L 3.078125 -12.21875 L 1.078125 -12.21875 C 0.921875 -12.21875 0.789062 -12.269531 0.6875 -12.375 C 0.582031 -12.476562 0.53125 -12.609375 0.53125 -12.765625 C 0.53125 -12.953125 0.617188 -13.113281 0.796875 -13.25 L 4.640625 -17 C 4.804688 -17.175781 4.96875 -17.265625 5.125 -17.265625 C 5.269531 -17.265625 5.394531 -17.207031 5.5 -17.09375 C 5.601562 -16.976562 5.65625 -16.84375 5.65625 -16.6875 L 5.65625 -14.4375 L 8.859375 -14.4375 C 9.179688 -14.4375 9.441406 -14.332031 9.640625 -14.125 C 9.847656 -13.914062 9.953125 -13.648438 9.953125 -13.328125 C 9.953125 -13.023438 9.847656 -12.765625 9.640625 -12.546875 C 9.441406 -12.328125 9.179688 -12.21875 8.859375 -12.21875 L 5.65625 -12.21875 L 5.65625 -3.671875 C 5.65625 -2.941406 5.828125 -2.476562 6.171875 -2.28125 C 6.523438 -2.082031 6.96875 -1.984375 7.5 -1.984375 C 7.875 -1.984375 8.25 -2.039062 8.625 -2.15625 C 8.707031 -2.164062 8.789062 -2.179688 8.875 -2.203125 C 8.957031 -2.222656 9.066406 -2.234375 9.203125 -2.234375 C 9.460938 -2.234375 9.695312 -2.132812 9.90625 -1.9375 C 10.113281 -1.738281 10.21875 -1.5 10.21875 -1.21875 C 10.21875 -0.78125 10 -0.445312 9.5625 -0.21875 C 8.820312 0.113281 8.039062 0.28125 7.21875 0.28125 Z M 7.21875 0.28125 "/></g></g></g><g fill="#ffffff" fill-opacity="1"><g transform="translate(56.883406, 26.467573)"><g><path d="M 3.453125 -17.375 C 3.054688 -17.375 2.71875 -17.515625 2.4375 -17.796875 C 2.15625 -18.078125 2.015625 -18.414062 2.015625 -18.8125 L 2.015625 -18.9375 C 2.015625 -19.332031 2.15625 -19.671875 2.4375 -19.953125 C 2.71875 -20.234375 3.054688 -20.375 3.453125 -20.375 L 3.625 -20.375 C 4.019531 -20.375 4.359375 -20.234375 4.640625 -19.953125 C 4.921875 -19.671875 5.0625 -19.332031 5.0625 -18.9375 L 5.0625 -18.8125 C 5.0625 -18.414062 4.921875 -18.078125 4.640625 -17.796875 C 4.359375 -17.515625 4.019531 -17.375 3.625 -17.375 Z M 3.515625 0.140625 C 3.148438 0.140625 2.84375 0.0195312 2.59375 -0.21875 C 2.351562 -0.46875 2.234375 -0.769531 2.234375 -1.125 L 2.234375 -13.265625 C 2.234375 -13.628906 2.351562 -13.9375 2.59375 -14.1875 C 2.84375 -14.445312 3.148438 -14.578125 3.515625 -14.578125 C 3.890625 -14.578125 4.195312 -14.453125 4.4375 -14.203125 C 4.6875 -13.960938 4.8125 -13.648438 4.8125 -13.265625 L 4.8125 -1.125 C 4.8125 -0.769531 4.679688 -0.46875 4.421875 -0.21875 C 4.171875 0.0195312 3.867188 0.140625 3.515625 0.140625 Z M 3.515625 0.140625 "/></g></g></g><g fill="#ffffff" fill-opacity="1"><g transform="translate(63.927381, 26.467573)"><g><path d="M 3.515625 0.140625 C 3.148438 0.140625 2.84375 0.0195312 2.59375 -0.21875 C 2.351562 -0.46875 2.234375 -0.769531 2.234375 -1.125 L 2.234375 -13.265625 C 2.234375 -13.628906 2.351562 -13.9375 2.59375 -14.1875 C 2.84375 -14.445312 3.148438 -14.578125 3.515625 -14.578125 C 3.867188 -14.578125 4.171875 -14.445312 4.421875 -14.1875 C 4.679688 -13.9375 4.8125 -13.628906 4.8125 -13.265625 L 4.8125 -12.109375 C 5.53125 -12.898438 6.300781 -13.53125 7.125 -14 C 7.957031 -14.476562 8.941406 -14.71875 10.078125 -14.71875 C 11.109375 -14.71875 12.003906 -14.472656 12.765625 -13.984375 C 13.535156 -13.492188 14.125 -12.820312 14.53125 -11.96875 C 14.9375 -11.125 15.140625 -10.191406 15.140625 -9.171875 L 15.140625 -1.125 C 15.140625 -0.769531 15.007812 -0.46875 14.75 -0.21875 C 14.5 0.0195312 14.195312 0.140625 13.84375 0.140625 C 13.476562 0.140625 13.171875 0.0195312 12.921875 -0.21875 C 12.679688 -0.46875 12.5625 -0.769531 12.5625 -1.125 L 12.5625 -8.890625 C 12.5625 -11.191406 11.523438 -12.34375 9.453125 -12.34375 C 8.503906 -12.34375 7.65625 -12.09375 6.90625 -11.59375 C 6.164062 -11.101562 5.46875 -10.445312 4.8125 -9.625 L 4.8125 -1.125 C 4.8125 -0.769531 4.679688 -0.46875 4.421875 -0.21875 C 4.171875 0.0195312 3.867188 0.140625 3.515625 0.140625 Z M 3.515625 0.140625 "/></g></g></g><g fill="#ffffff" fill-opacity="1"><g transform="translate(81.15543, 26.467573)"><g><path d="M 3.453125 -17.375 C 3.054688 -17.375 2.71875 -17.515625 2.4375 -17.796875 C 2.15625 -18.078125 2.015625 -18.414062 2.015625 -18.8125 L 2.015625 -18.9375 C 2.015625 -19.332031 2.15625 -19.671875 2.4375 -19.953125 C 2.71875 -20.234375 3.054688 -20.375 3.453125 -20.375 L 3.625 -20.375 C 4.019531 -20.375 4.359375 -20.234375 4.640625 -19.953125 C 4.921875 -19.671875 5.0625 -19.332031 5.0625 -18.9375 L 5.0625 -18.8125 C 5.0625 -18.414062 4.921875 -18.078125 4.640625 -17.796875 C 4.359375 -17.515625 4.019531 -17.375 3.625 -17.375 Z M 3.515625 0.140625 C 3.148438 0.140625 2.84375 0.0195312 2.59375 -0.21875 C 2.351562 -0.46875 2.234375 -0.769531 2.234375 -1.125 L 2.234375 -13.265625 C 2.234375 -13.628906 2.351562 -13.9375 2.59375 -14.1875 C 2.84375 -14.445312 3.148438 -14.578125 3.515625 -14.578125 C 3.890625 -14.578125 4.195312 -14.453125 4.4375 -14.203125 C 4.6875 -13.960938 4.8125 -13.648438 4.8125 -13.265625 L 4.8125 -1.125 C 4.8125 -0.769531 4.679688 -0.46875 4.421875 -0.21875 C 4.171875 0.0195312 3.867188 0.140625 3.515625 0.140625 Z M 3.515625 0.140625 "/></g></g></g><g fill="#ffffff" fill-opacity="1"><g transform="translate(88.199405, 26.467573)"><g><path d="M 8.90625 0.28125 C 7.550781 0.28125 6.296875 -0.0195312 5.140625 -0.625 C 3.992188 -1.226562 3.078125 -2.09375 2.390625 -3.21875 C 1.703125 -4.351562 1.359375 -5.6875 1.359375 -7.21875 C 1.359375 -8.738281 1.703125 -10.066406 2.390625 -11.203125 C 3.078125 -12.335938 3.992188 -13.207031 5.140625 -13.8125 C 6.296875 -14.414062 7.550781 -14.71875 8.90625 -14.71875 C 9.90625 -14.71875 10.769531 -14.585938 11.5 -14.328125 C 12.226562 -14.078125 12.90625 -13.753906 13.53125 -13.359375 C 13.90625 -13.109375 14.09375 -12.773438 14.09375 -12.359375 C 14.09375 -12.078125 13.984375 -11.816406 13.765625 -11.578125 C 13.546875 -11.347656 13.296875 -11.234375 13.015625 -11.234375 C 12.804688 -11.234375 12.597656 -11.289062 12.390625 -11.40625 C 11.765625 -11.726562 11.226562 -11.957031 10.78125 -12.09375 C 10.34375 -12.238281 9.796875 -12.3125 9.140625 -12.3125 C 7.515625 -12.3125 6.238281 -11.84375 5.3125 -10.90625 C 4.394531 -9.96875 3.9375 -8.738281 3.9375 -7.21875 C 3.9375 -5.6875 4.394531 -4.453125 5.3125 -3.515625 C 6.238281 -2.585938 7.515625 -2.125 9.140625 -2.125 C 9.796875 -2.125 10.34375 -2.191406 10.78125 -2.328125 C 11.226562 -2.472656 11.765625 -2.707031 12.390625 -3.03125 C 12.597656 -3.144531 12.804688 -3.203125 13.015625 -3.203125 C 13.296875 -3.203125 13.546875 -3.082031 13.765625 -2.84375 C 13.984375 -2.601562 14.09375 -2.34375 14.09375 -2.0625 C 14.09375 -1.644531 13.90625 -1.316406 13.53125 -1.078125 C 12.90625 -0.679688 12.226562 -0.351562 11.5 -0.09375 C 10.769531 0.15625 9.90625 0.28125 8.90625 0.28125 Z M 8.90625 0.28125 "/></g></g></g><g fill="#ffffff" fill-opacity="1"><g transform="translate(103.277486, 26.467573)"><g><path d="M 5.90625 0.28125 C 5.082031 0.28125 4.316406 0.113281 3.609375 -0.21875 C 2.898438 -0.5625 2.335938 -1.054688 1.921875 -1.703125 C 1.503906 -2.359375 1.296875 -3.113281 1.296875 -3.96875 C 1.296875 -5.363281 1.847656 -6.472656 2.953125 -7.296875 C 4.054688 -8.128906 5.675781 -8.546875 7.8125 -8.546875 L 11.234375 -8.546875 L 11.234375 -8.765625 C 11.234375 -10.015625 10.925781 -10.910156 10.3125 -11.453125 C 9.695312 -12.003906 8.738281 -12.28125 7.4375 -12.28125 C 6.71875 -12.28125 6.082031 -12.222656 5.53125 -12.109375 C 4.976562 -11.992188 4.359375 -11.828125 3.671875 -11.609375 C 3.523438 -11.566406 3.40625 -11.546875 3.3125 -11.546875 C 3.03125 -11.546875 2.785156 -11.648438 2.578125 -11.859375 C 2.367188 -12.066406 2.265625 -12.320312 2.265625 -12.625 C 2.265625 -13.132812 2.507812 -13.492188 3 -13.703125 C 4.601562 -14.378906 6.234375 -14.71875 7.890625 -14.71875 C 9.191406 -14.71875 10.289062 -14.453125 11.1875 -13.921875 C 12.082031 -13.390625 12.742188 -12.703125 13.171875 -11.859375 C 13.597656 -11.023438 13.8125 -10.117188 13.8125 -9.140625 L 13.8125 -1.125 C 13.8125 -0.769531 13.679688 -0.46875 13.421875 -0.21875 C 13.171875 0.0195312 12.863281 0.140625 12.5 0.140625 C 12.144531 0.140625 11.84375 0.0195312 11.59375 -0.21875 C 11.351562 -0.46875 11.234375 -0.769531 11.234375 -1.125 L 11.234375 -1.875 C 9.835938 -0.4375 8.0625 0.28125 5.90625 0.28125 Z M 6.875 -1.984375 C 7.707031 -1.984375 8.507812 -2.1875 9.28125 -2.59375 C 10.050781 -3 10.703125 -3.503906 11.234375 -4.109375 L 11.234375 -6.484375 L 8.15625 -6.484375 C 5.300781 -6.484375 3.875 -5.738281 3.875 -4.25 C 3.875 -3.5625 4.101562 -3.007812 4.5625 -2.59375 C 5.03125 -2.1875 5.800781 -1.984375 6.875 -1.984375 Z M 6.875 -1.984375 "/></g></g></g><g clip-path="url(#e72bdd9008)"><path fill="#ff66c4" d="M 60.449219 5.101562 C 59.207031 5.101562 58.199219 6.105469 58.199219 7.351562 C 58.199219 8.59375 59.207031 9.601562 60.449219 9.601562 C 61.691406 9.601562 62.699219 8.59375 62.699219 7.351562 C 62.699219 6.105469 61.691406 5.101562 60.449219 5.101562 " fill-opacity="1" fill-rule="nonzero"/></g><g clip-path="url(#99e2b2228a)"><path fill="#5ce1e6" d="M 84.824219 5.101562 C 83.582031 5.101562 82.574219 6.105469 82.574219 7.351562 C 82.574219 8.59375 83.582031 9.601562 84.824219 9.601562 C 86.066406 9.601562 87.074219 8.59375 87.074219 7.351562 C 87.074219 6.105469 86.066406 5.101562 84.824219 5.101562 " fill-opacity="1" fill-rule="nonzero"/></g></svg>
