<svg xmlns="http://www.w3.org/2000/svg" data-name="Layer 1" viewBox="0 0 38.5 21.85"><path d="M38.09 8.51l-8.29-7.2c-2.39-2.08-5.74-1.64-8.16 1.06a1.2 1.2 0 0 0 1.78 1.55c1.17-1.3 3.12-2.31 4.8-.85l6.22 5.41H4.06l6.19-5.37c1.68-1.46 3.63-.45 4.8.85a1.2 1.2 0 1 0 1.79-1.6C14.42-.34 11.07-.78 8.68 1.3L.39 8.5a1.2 1.2 0 0 0-.41.91v5a7.52 7.52 0 0 0 7.56 7.47h1.34a8.35 8.35 0 0 0 8.05-6.08 7 7 0 0 1 2.32-.48 6.41 6.41 0 0 1 2.26.44 8.35 8.35 0 0 0 8.05 6.09h1.32a7.52 7.52 0 0 0 7.56-7.47v-5a1.2 1.2 0 0 0-.35-.87zM8.88 19.45H7.56a5.12 5.12 0 0 1-5.16-5.07v-3.46h12.44v2.68a5.91 5.91 0 0 1-5.96 5.85zm8.37-6.28v-2.25h4v2.24a8.39 8.39 0 0 0-2-.24 8.83 8.83 0 0 0-2 .25zm13.7 6.28h-1.33a5.91 5.91 0 0 1-6-5.85v-2.68H36.1v3.46a5.12 5.12 0 0 1-5.16 5.07z"/></svg>