<svg xmlns="http://www.w3.org/2000/svg" data-name="Layer 1" viewBox="0 0 31.8 28.4"><path d="M31.7 26.72a7.44 7.44 0 0 0-3.69-3.63 8.72 8.72 0 0 0-3.82-.26c-1.21.09-2.57.19-3.08-.3-.72-.71-.15-2.6.24-3.4a1.13 1.13 0 0 0 0-.18 12 12 0 0 0 3.75-8.41c0-6.2-3.84-10.53-9.33-10.53S6.48 4.33 6.48 10.53a12.19 12.19 0 0 0 3.94 8.46 1.13 1.13 0 0 0 0 .13c.39.8 1 2.7.24 3.41-.5.5-1.87.39-3.08.3a8.75 8.75 0 0 0-3.82.26A7.43 7.43 0 0 0 .1 26.72a1.208 1.208 0 1 0 2.2 1 5 5 0 0 1 2.37-2.36 7.3 7.3 0 0 1 2.76-.16c1.72.13 3.66.28 4.94-1a3.9 3.9 0 0 0 1-3.11 5.72 5.72 0 0 0 2.39.64 6.15 6.15 0 0 0 2.57-.67 3.92 3.92 0 0 0 1 3.14c1.28 1.26 3.22 1.12 4.94 1a7.34 7.34 0 0 1 2.76.1 5 5 0 0 1 2.37 2.36 1.242 1.242 0 1 0 2.3-.94zM8.9 10.53c0-4.94 2.7-8.13 6.91-8.13s6.93 3.19 6.93 8.13-4.62 8.84-6.93 8.84c-1.91 0-6.91-3.92-6.91-8.84z"/></svg>