<svg width="1351" height="590" viewBox="0 0 1351 590" xmlns="http://www.w3.org/2000/svg"><g fill="none" fill-rule="evenodd" opacity=".32"><g opacity=".77"><path fill="#FFA623" d="M1156.24 10.469l-6.92-4.398.633 8.175-4.397 6.92 8.174-.634 6.92 4.397-.634-8.174 4.398-6.92z"/><path fill="#FFF" opacity=".25" d="M1158.526 21.393l-4.325-2.748.784-3.145z"/><path fill="#FFF" opacity=".25" d="M1160.878 11.96l-2.749 4.324-3.144-.784z"/><path fill="#FFF" opacity=".25" d="M1151.444 9.607l4.325 2.749-.784 3.144z"/><path fill="#FFF" opacity=".25" d="M1149.092 19.041l2.748-4.325 3.145.784z"/><path fill="#BF7D1A" opacity=".25" d="M1151.444 9.607l.396 5.11 3.145.783z"/><path fill="#BF7D1A" opacity=".5" d="M1160.878 11.96l-5.11.396-.783 3.144z"/><path fill="#FFF" opacity=".5" d="M1158.526 21.393l-.397-5.109-3.144-.784zM1149.092 19.041l5.109-.396.784-3.145z"/><path fill="#FFF" opacity=".5" d="M1156.494 15.877l.143 2.373-2.028-1.24-2.374.143 1.24-2.029-.143-2.374 2.03 1.24 2.373-.142z"/></g><g opacity=".84"><path fill="#FFA623" d="M1066.011 204.24l2.636-8.937-8.73 3.253-8.937-2.636 3.253 8.73-2.636 8.937 8.73-3.253 8.937 2.636z"/><path fill="#FFF" opacity=".25" d="M1054.794 210.159l1.648-5.585 3.68-.129zM1065.836 209.773l-5.585-1.647-.129-3.68zM1065.45 198.732l-1.647 5.585-3.68.128zM1054.409 199.117l5.585 1.648.128 3.68z"/><path fill="#BF7D1A" opacity=".25" d="M1065.45 198.732l-5.456 2.033.128 3.68z"/><path fill="#BF7D1A" opacity=".5" d="M1065.836 209.773l-2.033-5.456-3.68.128z"/><path fill="#FFF" opacity=".5" d="M1054.794 210.159l5.457-2.033-.129-3.68zM1054.409 199.117l2.033 5.457 3.68-.129z"/><path fill="#FFF" opacity=".5" d="M1060.184 206.212l-2.548.9.72-2.605-.9-2.548 2.605.72 2.548-.9-.72 2.605.9 2.548z"/></g><g opacity=".84"><path fill="#24CC8F" d="M1190.638 222.022l-1.577 7.726-11.724 5.22-6.797-3.998 5.202-15.36z"/><path fill="#FFF" opacity=".25" d="M1184.85 224.8l2.628 3.646-5.025 2.237z"/><path fill="#FFF" opacity=".25" d="M1176.476 228.528l.953 4.392 5.024-2.237z"/><path fill="#FFF" opacity=".5" d="M1184.85 224.8l-2.397 5.883-5.977-2.155zM1188.535 223.159l-1.057 5.287-2.628-3.647z"/><path fill="#1B996B" opacity=".35" d="M1172.792 230.168l4.637 2.752-.953-4.392zM1188.535 223.159l-3.685 1.64-8.027-6.76z"/><path fill="#FFF" opacity=".5" d="M1172.792 230.168l3.684-1.64.347-10.49z"/><path fill="#FFF" opacity=".25" d="M1184.85 224.8l-8.374 3.728.347-10.49z"/></g><g opacity=".85"><path fill="#24CC8F" d="M1085.983 590.055l-6.729-5.36.733-13.98 7.252-4.628 12.354 12.664z"/><path fill="#FFF" opacity=".25" d="M1086.15 583.054l-4.846.747.314-5.992zM1086.673 573.067l-4.741-1.25-.314 5.992z"/><path fill="#FFF" opacity=".5" d="M1086.15 583.054l-4.532-5.245 5.055-4.742zM1085.92 587.448l-4.616-3.647 4.846-.747z"/><path fill="#1B996B" opacity=".35" d="M1086.903 568.673l-4.971 3.145 4.74 1.25zM1085.92 587.448l.23-4.394 10.547-4.454z"/><path fill="#FFF" opacity=".5" d="M1086.903 568.673l-.23 4.394 10.024 5.533z"/><path fill="#FFF" opacity=".25" d="M1086.15 583.054l.523-9.987 10.024 5.533z"/></g><g opacity=".91"><path fill="#24CC8F" d="M1282.589 168.697l7.462.987 5.75 10.817-3.353 6.738-14.973-3.93z"/><path fill="#FFF" opacity=".25" d="M1285.619 174.023l3.297-2.744 2.465 4.635zM1289.727 181.749l4.119-1.2-2.465-4.635z"/><path fill="#FFF" opacity=".5" d="M1285.619 174.023l5.762 1.891-1.654 5.835zM1283.811 170.624l5.105.655-3.297 2.744z"/><path fill="#1B996B" opacity=".35" d="M1291.534 185.148l2.312-4.598-4.12 1.199zM1283.811 170.624l1.808 3.399-5.904 8.094z"/><path fill="#FFF" opacity=".5" d="M1291.534 185.148l-1.807-3.4-10.012.369z"/><path fill="#FFF" opacity=".25" d="M1285.619 174.023l4.108 7.726-10.012.368z"/></g><g opacity=".93"><path fill="#24CC8F" d="M421.995 586.862l-7.8 1.16-8.914-9.23 1.432-7.755 16.213-.365z"/><path fill="#FFF" opacity=".25" d="M417.406 582.374l-2.529 3.716-3.82-3.956zM411.038 575.78l-3.802 2.397 3.82 3.957z"/><path fill="#FFF" opacity=".5" d="M417.406 582.374l-6.35-.24-.018-6.354zM420.208 585.275l-5.33.815 2.528-3.716z"/><path fill="#1B996B" opacity=".35" d="M408.236 572.879l-1 5.298 3.802-2.397zM420.208 585.275l-2.802-2.9 3.608-9.857z"/><path fill="#FFF" opacity=".5" d="M408.236 572.879l2.802 2.901 9.976-3.262z"/><path fill="#FFF" opacity=".25" d="M417.406 582.374l-6.368-6.594 9.976-3.262z"/></g><g opacity=".7"><path fill="#24CC8F" d="M653.368 196.221l-9.673 2.676-12.693-10.28.606-10.017 20.425-2.976z"/><path fill="#FFF" opacity=".25" d="M646.874 191.263l-2.617 5.086-5.44-4.405zM637.808 183.92l-4.431 3.619 5.44 4.405z"/><path fill="#FFF" opacity=".5" d="M646.874 191.263l-8.057.68-1.01-8.022z"/><path fill="#FFF" opacity=".5" d="M650.864 194.493l-6.607 1.856 2.617-5.086z"/><path fill="#1B996B" opacity=".35" d="M633.818 180.69l-.441 6.849 4.43-3.618zM650.864 194.493l-3.99-3.23 3.03-13.01z"/><path fill="#FFF" opacity=".5" d="M633.818 180.69l3.99 3.23 12.095-5.667z"/><path fill="#FFF" opacity=".25" d="M646.874 191.263l-9.066-7.342 12.095-5.668z"/></g><g transform="rotate(-112 844.785 -159.263)" opacity=".94"><circle fill="#FFA623" cx="13" cy="13" r="13"/><path d="M6.825 19.175c-3.358-3.358-3.358-8.883 0-12.242 3.358-3.358 8.883-3.358 12.242 0" fill="#FFF" opacity=".5"/><path d="M19.175 6.825c3.358 3.358 3.358 8.883 0 12.242-3.358 3.358-8.883 3.358-12.242 0" fill="#FFF" opacity=".25"/><path d="M13 2.167C7.042 2.167 2.167 7.042 2.167 13S7.042 23.833 13 23.833 23.833 18.958 23.833 13 18.958 2.167 13 2.167zm0 19.5c-4.767 0-8.667-3.9-8.667-8.667 0-4.767 3.9-8.667 8.667-8.667 4.767 0 8.667 3.9 8.667 8.667 0 4.767-3.9 8.667-8.667 8.667z" fill="#BF7D1A" opacity=".5"/><path fill="#BF7D1A" opacity=".75" d="M14.083 9.75v2.167h-2.166V9.75H9.75v6.5h2.167v-2.167h2.166v2.167h2.167v-6.5z"/></g><g transform="rotate(161 360.952 243.24)" opacity=".79"><circle fill="#FFA623" cx="12.5" cy="12.5" r="12.5"/><path d="M6.563 18.438c-3.23-3.23-3.23-8.542 0-11.771 3.229-3.23 8.541-3.23 11.77 0" fill="#FFF" opacity=".5"/><path d="M18.438 6.563c3.229 3.229 3.229 8.541 0 11.77-3.23 3.23-8.542 3.23-11.771 0" fill="#FFF" opacity=".25"/><path d="M12.5 2.083C6.77 2.083 2.083 6.771 2.083 12.5c0 5.73 4.688 10.417 10.417 10.417 5.73 0 10.417-4.688 10.417-10.417 0-5.73-4.688-10.417-10.417-10.417zm0 18.75c-4.583 0-8.333-3.75-8.333-8.333s3.75-8.333 8.333-8.333 8.333 3.75 8.333 8.333-3.75 8.333-8.333 8.333z" fill="#BF7D1A" opacity=".5"/><path fill="#BF7D1A" opacity=".75" d="M13.542 9.375v2.083h-2.084V9.375H9.375v6.25h2.083v-2.083h2.084v2.083h2.083v-6.25z"/></g><g transform="rotate(39 30.325 1168.017)" opacity=".82"><circle fill="#FFA623" cx="9.5" cy="9.5" r="9.5"/><path d="M4.987 14.012c-2.454-2.454-2.454-6.491 0-8.945 2.455-2.455 6.492-2.455 8.946 0" fill="#FFF" opacity=".5"/><path d="M14.012 4.987c2.455 2.455 2.455 6.492 0 8.946-2.454 2.454-6.491 2.454-8.945 0" fill="#FFF" opacity=".25"/><path d="M9.5 1.583c-4.354 0-7.917 3.563-7.917 7.917 0 4.354 3.563 7.917 7.917 7.917 4.354 0 7.917-3.563 7.917-7.917 0-4.354-3.563-7.917-7.917-7.917zm0 14.25c-3.483 0-6.333-2.85-6.333-6.333S6.017 3.167 9.5 3.167s6.333 2.85 6.333 6.333-2.85 6.333-6.333 6.333z" fill="#BF7D1A" opacity=".5"/><path fill="#BF7D1A" opacity=".75" d="M10.292 7.125v1.583H8.708V7.125H7.125v4.75h1.583v-1.583h1.584v1.583h1.583v-4.75z"/></g><g transform="rotate(-35 888.132 253.875)" opacity=".84"><circle fill="#FFA623" cx="9" cy="9" r="9"/><path d="M4.725 13.275C2.4 10.95 2.4 7.125 4.725 4.8c2.325-2.325 6.15-2.325 8.475 0" fill="#FFF" opacity=".5"/><path d="M13.275 4.725c2.325 2.325 2.325 6.15 0 8.475-2.325 2.325-6.15 2.325-8.475 0" fill="#FFF" opacity=".25"/><path d="M9 1.5C4.875 1.5 1.5 4.875 1.5 9s3.375 7.5 7.5 7.5 7.5-3.375 7.5-7.5S13.125 1.5 9 1.5zM9 15c-3.3 0-6-2.7-6-6s2.7-6 6-6 6 2.7 6 6-2.7 6-6 6z" fill="#BF7D1A" opacity=".5"/><path fill="#BF7D1A" opacity=".75" d="M9.75 6.75v1.5h-1.5v-1.5h-1.5v4.5h1.5v-1.5h1.5v1.5h1.5v-4.5z"/></g><g transform="rotate(109 -95.157 331.34)" opacity=".97"><circle fill="#FFA623" cx="9.5" cy="9.5" r="9.5"/><path d="M4.987 14.012c-2.454-2.454-2.454-6.491 0-8.945 2.455-2.455 6.492-2.455 8.946 0" fill="#FFF" opacity=".5"/><path d="M14.012 4.987c2.455 2.455 2.455 6.492 0 8.946-2.454 2.454-6.491 2.454-8.945 0" fill="#FFF" opacity=".25"/><path d="M9.5 1.583c-4.354 0-7.917 3.563-7.917 7.917 0 4.354 3.563 7.917 7.917 7.917 4.354 0 7.917-3.563 7.917-7.917 0-4.354-3.563-7.917-7.917-7.917zm0 14.25c-3.483 0-6.333-2.85-6.333-6.333S6.017 3.167 9.5 3.167s6.333 2.85 6.333 6.333-2.85 6.333-6.333 6.333z" fill="#BF7D1A" opacity=".5"/><path fill="#BF7D1A" opacity=".75" d="M10.292 7.125v1.583H8.708V7.125H7.125v4.75h1.583v-1.583h1.584v1.583h1.583v-4.75z"/></g><g transform="rotate(-94 101.833 80.144)" opacity=".94"><circle fill="#FFA623" cx="14" cy="14" r="14"/><path d="M7.35 20.65c-3.617-3.617-3.617-9.567 0-13.183 3.617-3.617 9.567-3.617 13.183 0" fill="#FFF" opacity=".5"/><path d="M20.65 7.35c3.617 3.617 3.617 9.567 0 13.183-3.617 3.617-9.567 3.617-13.183 0" fill="#FFF" opacity=".25"/><path d="M14 2.333C7.583 2.333 2.333 7.583 2.333 14S7.583 25.667 14 25.667 25.667 20.417 25.667 14 20.417 2.333 14 2.333zm0 21c-5.133 0-9.333-4.2-9.333-9.333S8.867 4.667 14 4.667s9.333 4.2 9.333 9.333-4.2 9.333-9.333 9.333z" fill="#BF7D1A" opacity=".5"/><path fill="#BF7D1A" opacity=".75" d="M15.167 10.5v2.333h-2.334V10.5H10.5v7h2.333v-2.333h2.334V17.5H17.5v-7z"/></g><g opacity=".89"><path fill="#F74E52" d="M704.275 60.871l-3.542 1.501-4.224-3.125-4.922 1.84-2.991-2.42.826-5.88 3.91-4.113 5.031-2.624 4.114 3.91 2.624 5.031z"/><path fill="#FF6165" d="M701.434 50.745l2.305 4.455-.67 4.769-2.125.9-4.224-3.125-4.922 1.84-1.795-1.451.67-4.77 3.444-3.646 4.017-2.034z"/><path fill="#FFF" opacity=".5" d="M697.491 52.256l-3.374-2.539 4.017-2.034z"/><path fill="#B52428" opacity=".35" d="M697.491 52.256l3.943-1.51-3.3-3.063z"/><path fill="#FFF" opacity=".25" d="M701.434 50.745l2.305 4.455-6.248-2.944z"/><path fill="#B52428" opacity=".5" d="M694.117 49.717l-3.444 3.646 6.818-1.107z"/><path fill="#B52428" opacity=".35" d="M697.491 52.256l-5.693 7.328-1.795-1.451.67-4.77z"/><path fill="#B52428" opacity=".5" d="M697.491 52.256l3.453 8.613 2.125-.9.67-4.77z"/><path fill="#FFF" opacity=".5" d="M697.491 52.256l3.453 8.613-4.224-3.125z"/><path fill="#FFF" opacity=".25" d="M697.491 52.256l-5.693 7.328 4.922-1.84z"/><path fill="#FFF" opacity=".5" d="M699.795 51.98l1.893 3.598-.423 3.005-.065-.01-4.168-3.05-4.848 1.784-.065-.01.423-3.005 2.81-2.936 2.451-1.32z"/></g><g opacity=".97"><path fill="#F74E52" d="M682.84 437.895l.414-5.857 7.177-3.58.908-7.968 5.363-2.392 7.423 5.198 2.886 8.168.082 8.661-8.167 2.886-8.662.082z"/><path fill="#FF6165" d="M698.58 441.048l-7.656.048-6.021-4.216.248-3.514 7.177-3.579.909-7.969 3.217-1.435 6.021 4.217 2.573 7.21-.017 6.871z"/><path fill="#FFF" opacity=".5" d="M699.257 434.638l5.791-2.828-.017 6.871z"/><path fill="#B52428" opacity=".35" d="M699.257 434.638l-.678 6.41 6.452-2.367z"/><path fill="#FFF" opacity=".25" d="M698.58 441.048l-7.656.048 8.333-6.458z"/><path fill="#B52428" opacity=".5" d="M705.048 431.81l-2.573-7.21-3.218 10.038z"/><path fill="#B52428" opacity=".35" d="M699.257 434.638l-6.02-12.82 3.217-1.435 6.021 4.217z"/><path fill="#B52428" opacity=".5" d="M699.257 434.638l-14.106-1.272-.248 3.514 6.021 4.216z"/><path fill="#FFF" opacity=".5" d="M699.257 434.638l-14.106-1.272 7.177-3.579z"/><path fill="#FFF" opacity=".25" d="M699.257 434.638l-6.02-12.82-.909 7.969z"/><path fill="#FFF" opacity=".5" d="M698.035 437.963l-6.203.081-3.794-2.656.057-.083 7.037-3.554.934-7.829.057-.082 3.795 2.657 2.045 5.857.098 4.248z"/></g><g opacity=".8"><path fill="#F74E52" d="M608.487 58.158l-4.81 3-6.868-3.574-6.74 3.812-4.912-2.831-.152-8.749 4.741-6.889 6.72-4.98 6.89 4.742 4.978 6.72z"/><path fill="#FF6165" d="M602.018 44.074l4.382 5.952.124 7.096-2.885 1.801-6.87-3.575-6.74 3.813-2.946-1.7-.124-7.095 4.172-6.102 5.377-3.886z"/><path fill="#FFF" opacity=".5" d="M596.627 47.183l-5.496-2.919 5.377-3.886z"/><path fill="#B52428" opacity=".35" d="M596.627 47.183l5.391-3.109-5.51-3.696z"/><path fill="#FFF" opacity=".25" d="M602.018 44.074l4.382 5.952-9.773-2.843z"/><path fill="#B52428" opacity=".5" d="M591.13 44.264l-4.171 6.102 9.668-3.183z"/><path fill="#B52428" opacity=".35" d="M596.627 47.183L590.03 59.16l-2.947-1.7-.124-7.095z"/><path fill="#B52428" opacity=".5" d="M596.627 47.183l7.012 11.74 2.885-1.8-.124-7.097z"/><path fill="#FFF" opacity=".5" d="M596.627 47.183l7.012 11.74-6.87-3.575z"/><path fill="#FFF" opacity=".25" d="M596.627 47.183L590.03 59.16l6.74-3.813z"/><path fill="#FFF" opacity=".5" d="M599.917 46.25l3.584 4.8.078 4.47-.097.003-6.77-3.48-6.645 3.714-.097.001-.078-4.471 3.415-4.922 3.262-2.487z"/></g><g opacity=".93"><path fill="#F74E52" d="M10.697 390.714L6.66 388.83l-.583-6.057-5.397-2.81-.236-4.448 5.7-3.844 6.568.176 6.157 2.298-.176 6.568-2.298 6.157z"/><path fill="#FF6165" d="M17.21 380.425l-2.048 5.435-4.623 3.118-2.421-1.131-.584-6.056-5.397-2.81-.141-2.669 4.623-3.118 5.806.138 4.862 1.88z"/><path fill="#FFF" opacity=".5" d="M12.854 378.203l-.43-4.871 4.863 1.88z"/><path fill="#B52428" opacity=".35" d="M12.854 378.203l4.355 2.222.078-5.212z"/><path fill="#FFF" opacity=".25" d="M17.21 380.425l-2.048 5.435-2.308-7.657z"/><path fill="#B52428" opacity=".5" d="M12.425 373.332l-5.806-.138 6.235 5.009z"/><path fill="#B52428" opacity=".35" d="M12.854 378.203l-10.717.778-.141-2.669 4.623-3.118z"/><path fill="#B52428" opacity=".5" d="M12.854 378.203l-4.736 9.644 2.421 1.131 4.623-3.118z"/><path fill="#FFF" opacity=".5" d="M12.854 378.203l-4.736 9.644-.584-6.056z"/><path fill="#FFF" opacity=".25" d="M12.854 378.203l-10.717.778 5.397 2.81z"/><path fill="#FFF" opacity=".5" d="M14.876 379.971l-1.629 4.416-2.913 1.965-.042-.063-.605-5.95-5.29-2.79-.043-.063 2.913-1.965 4.704.144 3.036 1.085z"/></g><g opacity=".82"><path fill="#F74E52" d="M73.65 23.72l-5.365-1.046-2.493-7.039-7.26-1.744-1.602-5.226 5.646-6.27L70.45.655l8.014.907 1.74 7.875-.908 8.013z"/><path fill="#FF6165" d="M78.35 9.534l-.823 7.08-4.58 5.085-3.219-.628-2.493-7.038-7.26-1.744-.962-3.136 4.58-5.086 6.954-1.56 6.348.797z"/><path fill="#FFF" opacity=".5" d="M72.504 8.18l-1.957-5.672 6.348.796z"/><path fill="#B52428" opacity=".35" d="M72.504 8.18l5.846 1.354-1.455-6.23z"/><path fill="#FFF" opacity=".25" d="M78.35 9.534l-.823 7.08-5.023-8.433z"/><path fill="#B52428" opacity=".5" d="M70.547 2.508l-6.954 1.56 8.911 4.113z"/><path fill="#B52428" opacity=".35" d="M72.504 8.18l-12.53 4.11-.96-3.137 4.579-5.086z"/><path fill="#B52428" opacity=".5" d="M72.504 8.18l-2.776 12.891 3.22.628 4.579-5.086z"/><path fill="#FFF" opacity=".5" d="M72.504 8.18l-2.776 12.891-2.493-7.038z"/><path fill="#FFF" opacity=".25" d="M72.504 8.18l-12.53 4.11 7.26 1.743z"/><path fill="#FFF" opacity=".5" d="M75.438 9.686l-.629 5.742-2.885 3.205-.07-.063-2.486-6.906-7.129-1.75-.07-.063 2.886-3.205L70.7 5.42l3.937.39z"/></g><g opacity=".84"><path fill="#2995CD" d="M1347.597 355.978l-10.051-.881-.179-10.089 13.343-2.187z"/><path fill="#50B5E9" d="M1338.862 346.28l5.43 2.525-5.265 4.91z"/><path fill="#1F709A" opacity=".25" d="M1344.293 348.805l2.14 5.594-7.406-.683z"/><path fill="#FFF" opacity=".25" d="M1344.293 348.805l4.443-4.143-2.304 9.737z"/><path fill="#FFF" opacity=".5" d="M1338.862 346.28l9.874-1.618-4.443 4.143z"/><path fill="#FFF" opacity=".5" d="M1340.411 347.502l6.35-.999-1.44 6.265-4.813-.433z"/></g><g opacity=".86"><path fill="#2995CD" d="M562.589 556.3l-.824 11.743-11.765.413-2.823-15.52z"/><path fill="#50B5E9" d="M551.454 566.687l2.835-6.386 5.835 6.042z"/><path fill="#1F709A" opacity=".25" d="M554.289 560.3l6.48-2.609-.645 8.652z"/><path fill="#FFF" opacity=".25" d="M554.289 560.3l-4.924-5.098 11.405 2.489z"/><path fill="#FFF" opacity=".5" d="M551.454 566.687l-2.089-11.485 4.924 5.099z"/><path fill="#FFF" opacity=".5" d="M552.848 564.855l-1.295-7.387 7.337 1.552-.407 5.624z"/></g></g></svg>